<?xml version="1.0" encoding="UTF-8"?>
<svg version="1.1" xmlns="http://www.w3.org/2000/svg" width="315" height="68">
<path d="M0 0 C3.3 0 6.6 0 10 0 C11.81115956 1.81115956 11.38199448 4.61278227 11.5625 7.0625 C11.64628906 8.16722656 11.73007813 9.27195312 11.81640625 10.41015625 C11.87699219 11.26480469 11.93757812 12.11945312 12 13 C12.99 12.67 13.98 12.34 15 12 C20.96991886 11.39838027 25.72629966 11.91538282 31 15 C36.08170131 19.85227913 38.14092485 23.63414641 38.3125 30.75 C38.24285606 36.52348302 37.59956267 39.47747255 34 44 C28.29700083 49.06786237 23.6598218 50.39619768 16 50 C15.071875 49.67 14.14375 49.34 13.1875 49 C8.96653619 47.50109988 8.96653619 47.50109988 0 48 C0 32.16 0 16.32 0 0 Z M11.375 24.5 C9.5783595 29.07326674 9.90665744 31.2361503 11 36 C12.72226496 39.24849977 12.72226496 39.24849977 16 40 C20.95093065 40.45261158 20.95093065 40.45261158 25.375 38.5 C27.61675109 35.05115217 28.43349705 32.11428111 28 28 C26.07636359 24.32947568 26.07636359 24.32947568 23 22 C18.12751973 20.71913485 15.05774502 20.99262379 11.375 24.5 Z " fill="#0A0B19" transform="translate(198,8)"/>
<path d="M0 0 C3.3 0 6.6 0 10 0 C11.65079442 1.65079442 11.22549447 3.63736179 11.31640625 5.91015625 C11.37924805 7.39418945 11.37924805 7.39418945 11.44335938 8.90820312 C11.48267578 9.94912109 11.52199219 10.99003906 11.5625 12.0625 C11.60568359 13.10728516 11.64886719 14.15207031 11.69335938 15.22851562 C11.79981225 17.81886884 11.9018276 20.40932186 12 23 C12.556875 22.28972656 13.11375 21.57945313 13.6875 20.84765625 C20.69877374 12.403335 20.69877374 12.403335 25.3125 11.8125 C30.54248366 12.07843137 30.54248366 12.07843137 33 13 C31.65909259 17.76767078 28.81544392 20.47069902 25.36328125 23.83984375 C23.74210408 25.97459684 23.74210408 25.97459684 24.03515625 28.83984375 C25.36614631 33.19924035 27.7387278 36.61281894 30.29296875 40.3203125 C33.0522766 44.51366923 33.0522766 44.51366923 32.7421875 47.3984375 C32.49726562 47.92695312 32.25234375 48.45546875 32 49 C28.48866958 49.6358546 25.48600105 49.85123282 22 49 C18.47273446 45.52312396 16.20087202 41.40174403 14 37 C13.34 37 12.68 37 12 37 C11.93941406 37.62648437 11.87882812 38.25296875 11.81640625 38.8984375 C11.73261719 39.71570312 11.64882812 40.53296875 11.5625 41.375 C11.48128906 42.18710937 11.40007812 42.99921875 11.31640625 43.8359375 C11 46 11 46 10 48 C6.7 48 3.4 48 0 48 C0 32.16 0 16.32 0 0 Z " fill="#0C0B1A" transform="translate(86,8)"/>
<path d="M0 0 C4.39217342 2.49751038 6.59318871 5.02956612 8.1875 9.8125 C8.27923532 11.22297387 8.31816416 12.63732899 8.3203125 14.05078125 C8.32224609 15.28151367 8.32224609 15.28151367 8.32421875 16.53710938 C8.32035156 17.39111328 8.31648438 18.24511719 8.3125 19.125 C8.31830078 20.38860352 8.31830078 20.38860352 8.32421875 21.67773438 C8.31719493 26.16946895 8.09609193 30.39212814 7.1875 34.8125 C6.46304688 34.78929687 5.73859375 34.76609375 4.9921875 34.7421875 C-1.07065994 34.57996686 -1.07065994 34.57996686 -6.9375 35.875 C-11.62483398 37.40347847 -16.24605437 37.10106958 -20.6875 34.87109375 C-23.66314616 32.70373609 -24.79963807 30.85180034 -25.9375 27.375 C-25.74055888 21.76217812 -23.26696109 19.19423803 -19.3125 15.4375 C-14.19100249 13.05966187 -9.36888275 13.48882722 -3.8125 13.8125 C-4.1425 12.1625 -4.4725 10.5125 -4.8125 8.8125 C-10.62032636 10.07717106 -10.62032636 10.07717106 -15.8125 12.8125 C-18.44684254 12.49123872 -20.43960097 11.99894952 -22.8125 10.8125 C-22.6875 7.5625 -22.6875 7.5625 -21.8125 3.8125 C-15.07421411 -1.75391008 -8.18812066 -2.55039824 0 0 Z M-13.8125 22.8125 C-13.8125 24.4625 -13.8125 26.1125 -13.8125 27.8125 C-11.15079573 28.5518623 -9.32564341 28.94445116 -6.625 28.25 C-4.03788427 26.19814959 -3.62806266 23.93882355 -2.8125 20.8125 C-8.6099423 20.56821657 -8.6099423 20.56821657 -13.8125 22.8125 Z " fill="#090B18" transform="translate(146.8125,21.1875)"/>
<path d="M0 0 C2.73737067 2.36745572 3.84709902 3.54129705 5 7 C5.09222761 8.4834724 5.13067411 9.97069625 5.1328125 11.45703125 C5.13474609 12.75543945 5.13474609 12.75543945 5.13671875 14.08007812 C5.13285156 14.98177734 5.12898438 15.88347656 5.125 16.8125 C5.13080078 18.14764648 5.13080078 18.14764648 5.13671875 19.50976562 C5.1298836 24.12007427 4.94450512 28.4648762 4 33 C3.27554687 32.97679687 2.55109375 32.95359375 1.8046875 32.9296875 C-4.25815994 32.76746686 -4.25815994 32.76746686 -10.125 34.0625 C-15.3596103 35.76943814 -20.13250218 34.93374891 -25 32.5 C-27.89864929 28.87668839 -28.39002963 25.58483812 -28 21 C-26.20022556 16.95050752 -24.66443404 15.39866043 -20.875 13.125 C-16.37205305 11.44743153 -11.73189831 11.7429351 -7 12 C-7.33 10.35 -7.66 8.7 -8 7 C-13.01535052 7.32960216 -13.01535052 7.32960216 -17 10 C-20.5 9.875 -20.5 9.875 -24 9 C-25.21875 6.9453125 -25.21875 6.9453125 -26 5 C-24.75803878 3.84545838 -23.50607155 2.70167438 -22.25 1.5625 C-21.55390625 0.92441406 -20.8578125 0.28632813 -20.140625 -0.37109375 C-14.11610024 -4.95544927 -6.06196561 -3.85761448 0 0 Z M-17 21 C-16.67 22.98 -16.34 24.96 -16 27 C-11.35413108 26.51515724 -11.35413108 26.51515724 -7 25 C-6.34227572 21.97065509 -6.34227572 21.97065509 -6 19 C-9.92896395 19 -13.19893228 20.00299863 -17 21 Z " fill="#070815" transform="translate(267,23)"/>
<path d="M0 0 C4.95062237 1.72961074 7.66231792 4.20767143 10.20385742 8.89331055 C11.7125951 12.88561274 11.45244962 16.91407134 11.3125 21.125 C11.29799805 22.44564453 11.29799805 22.44564453 11.28320312 23.79296875 C11.21077419 27.96865431 11.03826426 31.93135468 10 36 C6.7 36 3.4 36 0 36 C-0.78688902 32.85244392 -1.17362433 30.41637213 -1.31640625 27.234375 C-1.35830078 26.34492187 -1.40019531 25.45546875 -1.44335938 24.5390625 C-1.48267578 23.61867188 -1.52199219 22.69828125 -1.5625 21.75 C-1.60568359 20.81414063 -1.64886719 19.87828125 -1.69335938 18.9140625 C-1.7991805 16.60951359 -1.90126557 14.30486161 -2 12 C-5.05263664 11.01879536 -6.94736336 11.01879536 -10 12 C-10.02505615 12.65597168 -10.0501123 13.31194336 -10.07592773 13.98779297 C-10.1917326 16.95040183 -10.31452886 19.91268031 -10.4375 22.875 C-10.47681641 23.90753906 -10.51613281 24.94007812 -10.55664062 26.00390625 C-10.59853516 26.99003906 -10.64042969 27.97617187 -10.68359375 28.9921875 C-10.73858032 30.35899658 -10.73858032 30.35899658 -10.79467773 31.75341797 C-11 34 -11 34 -12 36 C-15.3 36 -18.6 36 -22 36 C-22 24.78 -22 13.56 -22 2 C-18.37 2 -14.74 2 -11 2 C-6.64736193 -0.17631903 -4.77274849 -0.48536425 0 0 Z " fill="#080918" transform="translate(300,20)"/>
<path d="M0 0 C4.49245584 2.24622792 6.94974075 4.43728434 9 9 C9.38830622 12.48690007 9.32748628 15.93366718 9.25 19.4375 C9.24484375 20.36626953 9.2396875 21.29503906 9.234375 22.25195312 C9.18105188 26.9343895 8.95292863 31.39673993 8 36 C5.03 36 2.06 36 -1 36 C-1.75386802 32.98452792 -2.14490281 30.79705867 -2.24609375 27.77734375 C-2.27896484 26.99166016 -2.31183594 26.20597656 -2.34570312 25.39648438 C-2.40704141 23.75340128 -2.46431492 22.11016155 -2.51757812 20.46679688 C-2.55173828 19.68240234 -2.58589844 18.89800781 -2.62109375 18.08984375 C-2.6461499 17.37691162 -2.67120605 16.66397949 -2.69702148 15.92944336 C-2.91265742 13.67719376 -2.91265742 13.67719376 -5 11 C-7.97065509 11.34227572 -7.97065509 11.34227572 -11 12 C-12.13777082 14.27554163 -12.18121263 15.71509516 -12.28125 18.24609375 C-12.31863281 19.08333984 -12.35601562 19.92058594 -12.39453125 20.78320312 C-12.42933594 21.65912109 -12.46414062 22.53503906 -12.5 23.4375 C-12.56896781 25.16552671 -12.64172785 26.89340731 -12.71875 28.62109375 C-12.76418945 29.77242798 -12.76418945 29.77242798 -12.81054688 30.94702148 C-13 33 -13 33 -14 36 C-16.97 36 -19.94 36 -23 36 C-23 24.78 -23 13.56 -23 2 C-19.7 2 -16.4 2 -13 2 C-8.33198528 -0.33400736 -5.11987624 -0.7199826 0 0 Z " fill="#020312" transform="translate(184,20)"/>
<path d="M0 0 C5.41963461 7.92481011 3.214147 22.37541128 3.25 31.5 C3.27078348 32.8567716 3.29161657 34.21354244 3.3125 35.5703125 C3.31765625 36.85679688 3.3228125 38.14328125 3.328125 39.46875 C3.3374707 40.62826172 3.34681641 41.78777344 3.35644531 42.98242188 C2.96597317 46.28806276 2.32700595 47.66067626 0 50 C-2.15625 50.49609375 -2.15625 50.49609375 -4.5 50.4375 C-5.2734375 50.43621094 -6.046875 50.43492188 -6.84375 50.43359375 C-9.53020021 49.89338365 -10.30291283 49.12293955 -12 47 C-12.3742218 45.03370667 -12.3742218 45.03370667 -12.37231445 42.77563477 C-12.37854324 41.92787979 -12.38477203 41.08012482 -12.39118958 40.2066803 C-12.38197983 39.29413986 -12.37277008 38.38159943 -12.36328125 37.44140625 C-12.36377975 36.50070786 -12.36427826 35.56000946 -12.36479187 34.59080505 C-12.36245118 32.60112395 -12.35272294 30.61143989 -12.33618164 28.62182617 C-12.3126176 25.57769237 -12.31561728 22.53443603 -12.32226562 19.49023438 C-12.31668784 17.55728645 -12.30957733 15.62434221 -12.30078125 13.69140625 C-12.30169266 12.78089005 -12.30260406 11.87037384 -12.30354309 10.93226624 C-12.29401108 10.0813591 -12.28447906 9.23045197 -12.2746582 8.35375977 C-12.27005081 7.60780045 -12.26544342 6.86184113 -12.26069641 6.09327698 C-11.95589979 3.64589477 -11.34884314 2.06347554 -10 0 C-6.21603308 -1.26132231 -3.85909105 -0.91214879 0 0 Z " fill="#6562C7" transform="translate(19,9)"/>
<path d="M0 0 C5.34734644 8.22813519 3.18544535 23.07617497 3.3125 32.5 C3.35721436 34.34368164 3.35721436 34.34368164 3.40283203 36.22460938 C3.47319758 47.12977304 3.47319758 47.12977304 -1 52 C-3.97 51.34 -6.94 50.68 -10 50 C-10.78225384 46.87098466 -11.12929939 44.77040975 -11.14526367 41.64624023 C-11.15164352 40.7953331 -11.15802338 39.94442596 -11.16459656 39.06773376 C-11.16570938 38.15721756 -11.1668222 37.24670135 -11.16796875 36.30859375 C-11.17129715 35.36693863 -11.17462555 34.42528351 -11.17805481 33.45509338 C-11.18311139 31.46721891 -11.18546353 29.47933597 -11.18530273 27.49145508 C-11.18749436 24.44533424 -11.20567755 21.39957265 -11.22460938 18.35351562 C-11.22754249 16.42187624 -11.22952783 14.49023513 -11.23046875 12.55859375 C-11.24124702 11.1897831 -11.24124702 11.1897831 -11.25224304 9.7933197 C-11.24916641 8.94556473 -11.24608978 8.09780975 -11.24291992 7.22436523 C-11.24434494 6.47920151 -11.24576996 5.73403778 -11.24723816 4.96629333 C-11 3 -11 3 -9 0 C-5.81179272 -1.31925818 -3.24094638 -1.10874482 0 0 Z " fill="#8987D3" transform="translate(36,8)"/>
<path d="M0 0 C2.91588851 0.35704757 4.52807269 1.00651873 7.0625 2.375 C7.82215653 13.51210735 8.23125188 24.65030874 8.375 35.8125 C8.40464844 36.99110596 8.43429688 38.16971191 8.46484375 39.3840332 C8.47257812 40.49351318 8.4803125 41.60299316 8.48828125 42.74609375 C8.50286377 43.73536865 8.51744629 44.72464355 8.5324707 45.74389648 C7.92525797 49.14334148 6.77283867 50.29406653 4.0625 52.375 C0.3125 53.125 0.3125 53.125 -2.9375 53.375 C-4.61487855 50.42673247 -5.20679426 48.23435354 -5.30395508 44.85351562 C-5.33350784 43.96579468 -5.36306061 43.07807373 -5.39350891 42.16345215 C-5.41447128 41.21232544 -5.43543365 40.26119873 -5.45703125 39.28125 C-5.48351242 38.29757446 -5.50999359 37.31389893 -5.53727722 36.30041504 C-5.58990424 34.2226935 -5.63749781 32.14483922 -5.68041992 30.06689453 C-5.74975406 26.88628221 -5.84569562 23.70719683 -5.94335938 20.52734375 C-5.9912075 18.50785033 -6.03748437 16.48831894 -6.08203125 14.46875 C-6.11311478 13.51762329 -6.1441983 12.56649658 -6.17622375 11.58654785 C-6.19001572 10.6988269 -6.20380768 9.81110596 -6.21801758 8.89648438 C-6.2364119 8.11801147 -6.25480621 7.33953857 -6.27375793 6.53747559 C-5.6413994 2.47077631 -4.06862204 0.51939856 0 0 Z " fill="#AEAEDF" transform="translate(47.9375,6.625)"/>
<path d="M0 0 C5.34734644 8.22813519 3.18544535 23.07617497 3.3125 32.5 C3.35721436 34.34368164 3.35721436 34.34368164 3.40283203 36.22460938 C3.47319758 47.12977304 3.47319758 47.12977304 -1 52 C-3.97 51.34 -6.94 50.68 -10 50 C-10 49.34 -10 48.68 -10 48 C-7.36 48.33 -4.72 48.66 -2 49 C-1.67 47.68 -1.34 46.36 -1 45 C-0.34 45 0.32 45 1 45 C0.83628906 44.50902832 0.67257813 44.01805664 0.50390625 43.51220703 C-0.21105343 39.94780051 -0.10197803 36.42281976 -0.0625 32.8046875 C-0.05682007 31.62170578 -0.05682007 31.62170578 -0.05102539 30.41482544 C-0.03883095 27.90149423 -0.0201947 25.3882789 0 22.875 C0.02652586 19.55989905 0.04654395 16.24485425 0.0625 12.9296875 C0.07079834 12.16510223 0.07909668 11.40051697 0.08764648 10.61276245 C0.19102227 6.6782621 0.19102227 6.6782621 -1 3 C-3.37374861 2.66574265 -3.37374861 2.66574265 -6 3 C-8.70513144 5.41084092 -9.21404341 7.55796794 -9.43237305 11.03417969 C-9.47368356 12.66310238 -9.49921115 14.29247657 -9.51171875 15.921875 C-9.52966995 16.78186096 -9.54762115 17.64184692 -9.56611633 18.52789307 C-9.62020038 21.26854584 -9.65410863 24.00902465 -9.6875 26.75 C-9.72067479 28.61070128 -9.7551646 30.47137961 -9.79101562 32.33203125 C-9.87592569 36.88789528 -9.94274584 41.44370788 -10 46 C-10.33 46 -10.66 46 -11 46 C-11.0493933 39.93108308 -11.08571643 33.86228287 -11.10986328 27.79321289 C-11.11992835 25.728088 -11.13358154 23.66297737 -11.15087891 21.59790039 C-11.17510493 18.63163736 -11.18647797 15.66556256 -11.1953125 12.69921875 C-11.20563507 11.7741301 -11.21595764 10.84904144 -11.22659302 9.8959198 C-11.22674408 9.03525406 -11.22689514 8.17458832 -11.22705078 7.2878418 C-11.231492 6.53061325 -11.23593323 5.7733847 -11.24050903 4.99320984 C-11 3 -11 3 -9 0 C-5.81179272 -1.31925818 -3.24094638 -1.10874482 0 0 Z " fill="#848FC3" transform="translate(36,8)"/>
<path d="M0 0 C2.25008222 3.15302784 2.21515411 5.96352758 2.125 9.75 C2.10695313 10.73484375 2.08890625 11.7196875 2.0703125 12.734375 C2.03550781 13.85585938 2.03550781 13.85585938 2 15 C1.34 15.33 0.68 15.66 0 16 C-0.33 12.7 -0.66 9.4 -1 6 C-5.73647686 5.73647686 -5.73647686 5.73647686 -9 7 C-9.66 20.2 -10.32 33.4 -11 47 C-11.33 47 -11.66 47 -12 47 C-12.04944549 40.94939363 -12.08574129 34.89890495 -12.10986328 28.84814453 C-12.11991954 26.78985546 -12.13356629 24.73158067 -12.15087891 22.67333984 C-12.17514354 19.71448237 -12.18648688 16.75581383 -12.1953125 13.796875 C-12.20563507 12.87694763 -12.21595764 11.95702026 -12.22659302 11.00921631 C-12.22674408 10.1486261 -12.22689514 9.28803589 -12.22705078 8.40136719 C-12.231492 7.64635925 -12.23593323 6.89135132 -12.24050903 6.11346436 C-11.95946163 3.64377059 -11.36315858 2.07663012 -10 0 C-6.21603308 -1.26132231 -3.85909105 -0.91214879 0 0 Z " fill="#5958A8" transform="translate(19,9)"/>
<path d="M0 0 C0.66 0 1.32 0 2 0 C2.07431978 4.05671683 2.12868133 8.11316846 2.16479492 12.17041016 C2.17985422 13.54971218 2.20030613 14.92896653 2.22631836 16.30810547 C2.26282415 18.29373403 2.27814853 20.27971618 2.29296875 22.265625 C2.31653442 24.05661621 2.31653442 24.05661621 2.34057617 25.88378906 C1.97173095 29.25865678 1.38633178 30.62950511 -1 33 C-3.19140625 33.4609375 -3.19140625 33.4609375 -5.5625 33.375 C-6.34753906 33.36210938 -7.13257813 33.34921875 -7.94140625 33.3359375 C-10 33 -10 33 -12 31 C-12.22705078 28.47802734 -12.22705078 28.47802734 -12.1953125 25.3359375 C-12.18886719 24.21445312 -12.18242187 23.09296875 -12.17578125 21.9375 C-12.15902344 20.761875 -12.14226563 19.58625 -12.125 18.375 C-12.11597656 17.19164063 -12.10695313 16.00828125 -12.09765625 14.7890625 C-12.07402812 11.85917477 -12.04108514 8.9296866 -12 6 C-11.67 6 -11.34 6 -11 6 C-10.67 13.92 -10.34 21.84 -10 30 C-7.36 30 -4.72 30 -2 30 C-1.3185177 28.10820797 -1.3185177 28.10820797 -1 26 C-1.66 25.34 -2.32 24.68 -3 24 C-2.34 23.34 -1.68 22.68 -1 22 C-0.62948007 19.6754661 -0.62948007 19.6754661 -0.5859375 16.9921875 C-0.52792969 15.51298828 -0.52792969 15.51298828 -0.46875 14.00390625 C-0.4378125 12.97136719 -0.406875 11.93882813 -0.375 10.875 C-0.33632813 9.83472656 -0.29765625 8.79445313 -0.2578125 7.72265625 C-0.16335234 5.14861689 -0.07778786 2.57458845 0 0 Z " fill="#606DBB" transform="translate(20,26)"/>
<path d="M0 0 C2.87481968 3.42240438 2.1407996 7.77601185 2 12 C1.67 12 1.34 12 1 12 C0.34 9.03 -0.32 6.06 -1 3 C-3.37374861 2.66574265 -3.37374861 2.66574265 -6 3 C-8.70513144 5.41084092 -9.21404341 7.55796794 -9.43237305 11.03417969 C-9.47368356 12.66310238 -9.49921115 14.29247657 -9.51171875 15.921875 C-9.52966995 16.78186096 -9.54762115 17.64184692 -9.56611633 18.52789307 C-9.62020038 21.26854584 -9.65410863 24.00902465 -9.6875 26.75 C-9.72067479 28.61070128 -9.7551646 30.47137961 -9.79101562 32.33203125 C-9.87592569 36.88789528 -9.94274584 41.44370788 -10 46 C-10.33 46 -10.66 46 -11 46 C-11.0493933 39.93108308 -11.08571643 33.86228287 -11.10986328 27.79321289 C-11.11992835 25.728088 -11.13358154 23.66297737 -11.15087891 21.59790039 C-11.17510493 18.63163736 -11.18647797 15.66556256 -11.1953125 12.69921875 C-11.20563507 11.7741301 -11.21595764 10.84904144 -11.22659302 9.8959198 C-11.22674408 9.03525406 -11.22689514 8.17458832 -11.22705078 7.2878418 C-11.231492 6.53061325 -11.23593323 5.7733847 -11.24050903 4.99320984 C-11 3 -11 3 -9 0 C-5.81179272 -1.31925818 -3.24094638 -1.10874482 0 0 Z " fill="#777AA8" transform="translate(36,8)"/>
<path d="M0 0 C3.125 0.25 3.125 0.25 7.125 2.25 C7.125 5.88 7.125 9.51 7.125 13.25 C6.795 13.25 6.465 13.25 6.125 13.25 C5.795 10.94 5.465 8.63 5.125 6.25 C5.125 7.24 5.125 8.23 5.125 9.25 C4.465 9.25 3.805 9.25 3.125 9.25 C2.795 9.91 2.465 10.57 2.125 11.25 C2.063125 10.63125 2.00125 10.0125 1.9375 9.375 C1.296081 6.97238859 1.296081 6.97238859 -1.4375 6 C-2.241875 5.7525 -3.04625 5.505 -3.875 5.25 C-3.875 5.91 -3.875 6.57 -3.875 7.25 C-4.535 7.25 -5.195 7.25 -5.875 7.25 C-4.79611369 0.41705336 -4.79611369 0.41705336 0 0 Z " fill="#AAAADA" transform="translate(47.875,6.75)"/>
<path d="M0 0 C0.33 0 0.66 0 1 0 C1.47617251 6.69286912 1.39973696 10.77531236 -3 16 C-7.455 15.01 -7.455 15.01 -12 14 C-12 13.34 -12 12.68 -12 12 C-9.36 12.33 -6.72 12.66 -4 13 C-3.87625 12.360625 -3.7525 11.72125 -3.625 11.0625 C-3.41875 10.381875 -3.2125 9.70125 -3 9 C-2.34 8.67 -1.68 8.34 -1 8 C-0.53476937 6.10466658 -0.53476937 6.10466658 -0.375 3.9375 C-0.25125 2.638125 -0.1275 1.33875 0 0 Z " fill="#9294B5" transform="translate(38,44)"/>
<path d="M0 0 C1.32 1.32 2.64 2.64 4 4 C-1.29230769 7.07692308 -1.29230769 7.07692308 -4.875 6.6875 C-5.57625 6.460625 -6.2775 6.23375 -7 6 C-6.67 5.34 -6.34 4.68 -6 4 C-5.360625 3.855625 -4.72125 3.71125 -4.0625 3.5625 C-1.61789145 3.13834965 -1.61789145 3.13834965 0 0 Z " fill="#A2A9CE" transform="translate(51,53)"/>
<path d="M0 0 C3 0.25 3 0.25 5 2.25 C4.34 2.25 3.68 2.25 3 2.25 C2.67 2.91 2.34 3.57 2 4.25 C0.35 3.92 -1.3 3.59 -3 3.25 C-3.33 4.57 -3.66 5.89 -4 7.25 C-4.66 7.25 -5.32 7.25 -6 7.25 C-4.92 0.41 -4.92 0.41 0 0 Z " fill="#A1A8C5" transform="translate(48,6.75)"/>
<path d="M0 0 C2 2 2 2 2.1953125 5.0390625 C2.17210937 6.22242188 2.14890625 7.40578125 2.125 8.625 C2.10695312 9.81351563 2.08890625 11.00203125 2.0703125 12.2265625 C2.04710937 13.14179687 2.02390625 14.05703125 2 15 C1.01 15.33 0.02 15.66 -1 16 C-0.67 10.72 -0.34 5.44 0 0 Z " fill="#8CA0C7" transform="translate(37,20)"/>
<path d="M0 0 C-0.99 1.32 -1.98 2.64 -3 4 C-3.99 3.67 -4.98 3.34 -6 3 C-6.66 3.66 -7.32 4.32 -8 5 C-7.67 3.35 -7.34 1.7 -7 0 C-3.86650268 -1.04449911 -3.01031744 -0.93423645 0 0 Z " fill="#5450A9" transform="translate(16,9)"/>
<path d="M0 0 C0.6875 1.8125 0.6875 1.8125 1 4 C-0.3125 5.5 -0.3125 5.5 -2 7 C-3.17574711 9.09989652 -3.17574711 9.09989652 -4 11 C-3.56179109 6.44262737 -3.14958831 3.42346555 0 0 Z " fill="#04050D" transform="translate(243,38)"/>
<path d="M0 0 C2.97 0.33 5.94 0.66 9 1 C8.34 2.32 7.68 3.64 7 5 C6.21625 4.505 5.4325 4.01 4.625 3.5 C2.21447673 1.83462035 2.21447673 1.83462035 0 2 C0 1.34 0 0.68 0 0 Z " fill="#05050F" transform="translate(110,20)"/>
<path d="M0 0 C0.33 0 0.66 0 1 0 C1 2.31 1 4.62 1 7 C0.01 7 -0.98 7 -2 7 C-2 6.01 -2 5.02 -2 4 C-2.66 3.34 -3.32 2.68 -4 2 C-2.68 2 -1.36 2 0 2 C0 1.34 0 0.68 0 0 Z " fill="#5867B4" transform="translate(21,48)"/>
<path d="M0 0 C4.95 0.99 4.95 0.99 10 2 C9.67 2.66 9.34 3.32 9 4 C4.545 3.01 4.545 3.01 0 2 C0 1.34 0 0.68 0 0 Z " fill="#8185B4" transform="translate(26,56)"/>
<path d="M0 0 C6.4 -0.36923077 6.4 -0.36923077 9.4375 1.5 C9.953125 1.995 10.46875 2.49 11 3 C9.54077307 2.88590407 8.08259402 2.75834456 6.625 2.625 C5.40683594 2.52058594 5.40683594 2.52058594 4.1640625 2.4140625 C2 2 2 2 0 0 Z " fill="#06060E" transform="translate(126,55)"/>
<path d="M0 0 C0.66 0.66 1.32 1.32 2 2 C0 4 0 4 -2.1640625 4.1953125 C-3.38222656 4.16050781 -3.38222656 4.16050781 -4.625 4.125 C-5.44226563 4.10695313 -6.25953125 4.08890625 -7.1015625 4.0703125 C-7.72804688 4.04710937 -8.35453125 4.02390625 -9 4 C-9 3.67 -9 3.34 -9 3 C-8.43410156 2.86722656 -7.86820313 2.73445313 -7.28515625 2.59765625 C-6.18494141 2.33275391 -6.18494141 2.33275391 -5.0625 2.0625 C-4.33160156 1.88847656 -3.60070312 1.71445312 -2.84765625 1.53515625 C-1.00030102 1.16112431 -1.00030102 1.16112431 0 0 Z " fill="#64669F" transform="translate(19,55)"/>
</svg>
